<?xml version="1.0" encoding="utf-8"?>
<!DOCTYPE svg PUBLIC "-//W3C//DTD SVG 1.1//EN" "http://www.w3.org/Graphics/SVG/1.1/DTD/svg11.dtd">
<svg version="1.1" id="Camada_1" xmlns="http://www.w3.org/2000/svg" xmlns:xlink="http://www.w3.org/1999/xlink" x="0px" y="0px"
	 width="320px" height="100px" viewBox="0 0 320 100" enable-background="new 0 0 320 100" xml:space="preserve">
<g fill="#fff">
	<g>
		<path d="M53.081,50.244c-0.393-1.015-1.513-1.57-3.359-1.654c0.892-0.24,1.606-0.585,2.14-1.037
			c0.535-0.452,0.937-0.968,1.201-1.55c0.266-0.58,0.427-1.181,0.484-1.802c0.056-0.619,0.084-1.186,0.083-1.703
			c-0.033-7.792-0.066-15.584-0.098-23.375c-0.007-1.674-0.577-2.996-1.706-3.939c-1.131-0.942-2.493-1.2-4.088-0.785
			c-4.135,1.074-8.259,2.208-12.37,3.403c0,21.82,0,43.639,0,65.459c2.367,0,4.735,0,7.103,0c-0.02-10.157-0.039-20.314-0.06-30.471
			c1.398-0.171,2.796-0.339,4.196-0.504c0.029,10.326,0.06,20.65,0.09,30.975c2.368,0,4.736,0,7.104,0
			c-0.042-9.981-0.084-19.962-0.125-29.944C53.67,52.287,53.472,51.259,53.081,50.244z M42.398,46.121
			c-0.016-7.903-0.031-15.807-0.046-23.71c1.387-0.342,2.776-0.677,4.165-1.006c0.023,8.035,0.047,16.069,0.07,24.103
			C45.19,45.708,43.793,45.913,42.398,46.121z"/>
		<path d="M69.906,9.238c0.132,22.268,0.264,44.535,0.396,66.802c-1.348,0.027-2.696,0.054-4.043,0.083
			c-0.124-22.012-0.249-44.024-0.373-66.037c-2.351,0.507-4.699,1.033-7.043,1.579c0.107,21.635,0.213,43.271,0.321,64.907
			c0.01,2.099,0.557,3.728,1.642,4.908c1.084,1.18,2.585,1.78,4.505,1.78c2.008,0,4.017,0,6.024,0c1.858,0,3.338-0.613,4.439-1.857
			c1.101-1.242,1.645-2.976,1.632-5.188c-0.142-22.792-0.285-45.583-0.426-68.374C74.619,8.288,72.261,8.754,69.906,9.238z"/>
		<path d="M100.978,47.877c-0.064-0.65-0.233-1.255-0.506-1.819c-0.273-0.563-0.668-1.044-1.18-1.444
			c-0.513-0.399-1.22-0.639-2.121-0.72c0.899-0.208,1.603-0.547,2.111-1.017c0.506-0.471,0.896-1.005,1.162-1.604
			c0.267-0.599,0.428-1.21,0.485-1.831c0.056-0.621,0.083-1.223,0.079-1.804c-0.052-8.856-0.103-17.712-0.156-26.569
			c-0.011-1.959-0.593-3.558-1.742-4.782c-1.151-1.22-2.508-1.714-4.068-1.484C90.808,5.425,86.579,6.11,82.36,6.856
			c0.16,25.468,0.321,50.935,0.482,76.403c4.226,0,8.453,0,12.679,0c1.558,0,2.902-0.682,4.034-2.063
			c1.129-1.377,1.69-3.017,1.679-4.906c-0.052-8.892-0.104-17.785-0.156-26.677C101.076,49.107,101.042,48.527,100.978,47.877z
			 M89.507,13.229c1.41-0.204,2.82-0.402,4.229-0.593c0.057,9.173,0.114,18.346,0.17,27.52c-1.41,0.117-2.819,0.237-4.229,0.362
			C89.622,31.42,89.564,22.324,89.507,13.229z M89.898,75.691c-0.057-9.167-0.115-18.334-0.172-27.5
			c1.408-0.102,2.818-0.201,4.228-0.297c0.057,9.245,0.114,18.489,0.17,27.734C92.716,75.648,91.307,75.668,89.898,75.691z"/>
		<path d="M113.734,75.382c-0.047-9.542-0.095-19.083-0.143-28.625c2.194-0.104,4.388-0.202,6.583-0.292
			c-0.011-2.684-0.023-5.367-0.035-8.052c-2.196,0.11-4.392,0.228-6.587,0.356c-0.047-9.468-0.094-18.935-0.142-28.403
			c2.622-0.25,5.245-0.478,7.869-0.685c-0.011-2.65-0.022-5.3-0.034-7.951c-5.011,0.438-10.017,0.961-15.015,1.569
			c0.147,26.653,0.294,53.306,0.442,79.959c4.975,0,9.951,0,14.926,0c-0.012-2.65-0.022-5.301-0.034-7.952
			C118.953,75.331,116.344,75.355,113.734,75.382z"/>
		<path d="M138.378,0.564c0.035,13.858,0.071,27.717,0.106,41.575c-2.264-13.804-4.537-27.545-6.82-41.196
			c-2.115,0.135-4.23,0.285-6.345,0.451c0.107,27.289,0.215,54.577,0.323,81.865c2.338,0,4.676,0,7.013,0
			c-0.045-14.18-0.09-28.359-0.136-42.539c2.273,14.108,4.537,28.296,6.791,42.539c2.098,0,4.196,0,6.294,0
			c-0.048-27.661-0.098-55.323-0.146-82.984C143.098,0.353,140.738,0.45,138.378,0.564z"/>
		<path d="M162.713,0.039c-2.027-0.012-4.057-0.009-6.085,0.007c-1.939,0.016-3.451,0.593-4.54,1.715
			c-1.089,1.125-1.63,2.907-1.627,5.342c0.008,6.927,0.016,13.853,0.023,20.78c0.002,0.914,0.048,1.751,0.139,2.51
			c0.092,0.76,0.378,1.669,0.863,2.729c3.142,6.587,6.278,13.209,9.406,19.841c0.3,0.611,0.51,1.144,0.632,1.602
			c0.119,0.456,0.18,1.029,0.18,1.713c-0.001,6.288-0.002,12.576-0.003,18.863c-1.351,0-2.701,0-4.05,0
			c-0.003-6.288-0.004-12.575-0.006-18.862c-2.375,0.005-4.751,0.016-7.126,0.032c0.006,6.661,0.015,13.321,0.021,19.982
			c0.003,2.437,0.546,4.207,1.626,5.309c1.081,1.104,2.579,1.656,4.498,1.656c2.008,0,4.017,0,6.024,0
			c1.918,0,3.418-0.552,4.497-1.657c1.081-1.102,1.622-2.873,1.625-5.31c0.008-6.472,0.014-12.944,0.021-19.416
			c0.001-0.988-0.014-1.827-0.042-2.512c-0.03-0.686-0.104-1.294-0.223-1.829c-0.122-0.533-0.271-1.067-0.451-1.602
			c-0.179-0.533-0.45-1.145-0.811-1.833c-2.944-6.265-5.895-12.528-8.853-18.771c-0.242-0.532-0.438-1.046-0.588-1.541
			c-0.152-0.494-0.228-1.085-0.228-1.772c-0.001-6.288-0.003-12.575-0.005-18.861c1.361-0.007,2.722-0.009,4.083-0.005
			c-0.001,6.288-0.002,12.575-0.003,18.863c2.384,0.006,4.768,0.024,7.151,0.056c0.006-6.663,0.014-13.325,0.021-19.986
			c0.003-2.436-0.539-4.217-1.628-5.34C166.165,0.624,164.651,0.05,162.713,0.039z"/>
		<path d="M190.125,1.032c-2.388-0.16-4.776-0.301-7.166-0.422c-0.073,27.55-0.146,55.1-0.22,82.649
			c4.826,0,9.651,0,14.477,0c0.011-2.655,0.022-5.31,0.033-7.965c-2.459-0.021-4.919-0.038-7.378-0.055
			C189.955,50.504,190.04,25.769,190.125,1.032z"/>
		<path d="M213.841,3.257c-2.018-0.244-4.037-0.474-6.056-0.689c-1.87-0.201-3.367,0.355-4.489,1.661
			c-1.124,1.308-1.689,3.084-1.699,5.318c-0.101,22.039-0.201,44.079-0.302,66.118c-0.01,2.384,0.535,4.25,1.639,5.588
			c1.103,1.341,2.583,2.007,4.441,2.007c2.009,0,4.018,0,6.025,0c1.857,0,3.345-0.658,4.462-1.964
			c1.116-1.306,1.681-3.113,1.695-5.436c0.126-21.474,0.252-42.948,0.378-64.421c0.013-2.176-0.533-4.022-1.638-5.548
			C217.192,4.369,215.707,3.482,213.841,3.257z M212.543,75.446c-1.379-0.016-2.759-0.032-4.138-0.046
			c0.111-21.623,0.222-43.244,0.333-64.867c1.387,0.136,2.771,0.279,4.156,0.427C212.777,32.456,212.661,53.951,212.543,75.446z"/>
		<path d="M237.89,6.825c-4.16-0.733-8.328-1.408-12.501-2.022c-0.16,26.152-0.32,52.305-0.48,78.457
			c2.368,0,4.736,0,7.104,0c0.073-11.652,0.146-23.305,0.22-34.958c1.888,0.14,3.776,0.286,5.663,0.436
			c1.617,0.129,2.969-0.369,4.053-1.486c1.085-1.116,1.633-2.563,1.644-4.359c0.059-9.418,0.118-18.837,0.176-28.257
			c0.011-1.862-0.562-3.551-1.719-5.081C240.892,8.029,239.506,7.109,237.89,6.825z M236.504,41.045
			c-1.407-0.134-2.816-0.265-4.224-0.392c0.056-9.067,0.113-18.134,0.171-27.202c1.408,0.208,2.816,0.422,4.224,0.643
			C236.618,23.078,236.561,32.061,236.504,41.045z"/>
		<path d="M248.287,83.26c4.975,0,9.951,0,14.926,0c0.011-2.313,0.021-4.625,0.033-6.938
			c-2.606-0.059-5.21-0.117-7.816-0.172c0.048-8.612,0.095-17.224,0.143-25.835c2.181,0.214,4.361,0.436,6.538,0.665
			c0.011-2.354,0.022-4.708,0.035-7.063c-2.177-0.28-4.354-0.551-6.533-0.812c0.047-8.545,0.095-17.091,0.142-25.637
			c2.59,0.511,5.177,1.042,7.76,1.595c0.011-2.312,0.021-4.625,0.033-6.937c-4.924-1.169-9.861-2.252-14.813-3.251
			C248.584,33.669,248.436,58.464,248.287,83.26z"/>
		<path d="M279.062,16.102c-1.973-0.543-3.949-1.073-5.928-1.589c-1.891-0.494-3.372-0.406-4.44,0.258
			c-1.069,0.668-1.609,2.042-1.617,4.102c-0.025,5.856-0.049,11.712-0.073,17.568c-0.004,0.772,0.039,1.489,0.125,2.146
			c0.087,0.657,0.364,1.473,0.838,2.44c3.071,6.042,6.148,11.919,9.235,17.61c0.296,0.526,0.503,0.978,0.624,1.36
			c0.117,0.381,0.177,0.85,0.175,1.404c-0.01,5.095-0.02,10.188-0.03,15.283c-1.346-0.036-2.693-0.07-4.04-0.104
			c0.015-5.175,0.03-10.349,0.044-15.524c-2.356-0.199-4.713-0.392-7.072-0.578c-0.023,5.631-0.047,11.263-0.07,16.894
			c-0.008,2.062,0.524,3.566,1.599,4.497c1.076,0.935,2.572,1.393,4.491,1.392c2.007,0,4.017,0,6.023,0
			c1.918,0,3.419-0.443,4.497-1.313c1.08-0.868,1.618-2.252,1.618-4.171c0-5.096,0-10.192,0-15.287c0-0.778-0.015-1.439-0.044-1.982
			c-0.031-0.542-0.105-1.029-0.222-1.462c-0.121-0.433-0.269-0.869-0.447-1.311c-0.178-0.438-0.446-0.951-0.802-1.536
			c-2.912-5.287-5.813-10.749-8.707-16.363c-0.237-0.477-0.429-0.933-0.576-1.366c-0.147-0.432-0.22-0.932-0.218-1.497
			c0.015-5.175,0.029-10.349,0.044-15.524c1.331,0.316,2.66,0.637,3.988,0.964c-0.01,5.094-0.02,10.188-0.03,15.281
			c2.34,0.43,4.679,0.872,7.014,1.328c0-5.246,0-10.49,0-15.736c0-1.917-0.528-3.455-1.587-4.63
			C282.417,17.485,280.947,16.623,279.062,16.102z"/>
		<path d="M0,56.663c10.899-1.246,21.821-2.357,32.761-3.347v-6.831C21.821,47.466,10.899,48.57,0,49.805V56.663z"/>
		<path d="M291.243,46.863v6.834c9.599,0.894,19.185,1.873,28.751,2.967c0.002-0.008,0.004-0.016,0.006-0.024v-6.829
			C310.431,48.728,300.844,47.75,291.243,46.863z"/>
	</g>
	<rect x="71.713" y="93.181" width="176.573" height="6.787"/>
</g>
</svg>
