<?xml version="1.0" standalone="no"?>
<!DOCTYPE svg PUBLIC "-//W3C//DTD SVG 20010904//EN"
 "http://www.w3.org/TR/2001/REC-SVG-20010904/DTD/svg10.dtd">
<svg version="1.0" xmlns="http://www.w3.org/2000/svg"
 width="320.000000pt" height="320.000000pt" viewBox="0 0 320.000000 320.000000"
 preserveAspectRatio="xMidYMid meet">
<metadata>
Created by potrace 1.11, written by Peter Selinger 2001-2013
</metadata>
<g transform="translate(0.000000,320.000000) scale(0.100000,-0.100000)"
fill="#000000" stroke="none">
<path d="M3070 3123 c0 -43 4 -217 9 -388 6 -170 13 -447 16 -615 15 -756 25
-1133 30 -1138 4 -5 10 187 8 258 -1 14 -6 252 -12 530 -6 278 -13 582 -16
675 -2 94 -8 302 -11 463 -4 160 -11 292 -15 292 -5 0 -9 -35 -9 -77z"/>
<path d="M1280 2863 c-24 -4 -63 -20 -122 -50 -14 -7 -34 -13 -45 -13 -24 0
-116 -43 -141 -67 -11 -10 -31 -26 -45 -35 -14 -10 -40 -47 -58 -83 -30 -61
-46 -82 -99 -127 -11 -10 -20 -26 -20 -35 1 -14 4 -12 16 7 l15 25 -6 -30 c-4
-16 -11 -31 -16 -33 -5 -2 -9 -18 -9 -36 0 -17 -7 -57 -15 -88 -25 -99 -29
-223 -10 -338 9 -58 23 -120 31 -139 8 -18 14 -48 14 -65 0 -23 9 -39 30 -58
24 -21 30 -34 30 -66 0 -21 -6 -52 -14 -68 -20 -42 -28 -84 -16 -84 5 0 10 -5
10 -11 0 -5 -4 -8 -9 -5 -5 4 -7 -3 -4 -14 9 -35 33 -3 33 46 0 23 6 49 13 56
9 9 18 77 27 208 17 247 17 245 8 305 -15 97 30 250 88 300 13 11 37 32 54 47
17 15 38 24 46 21 8 -3 20 0 28 6 8 7 22 14 32 16 11 2 34 8 52 14 18 5 40 7
49 4 10 -4 14 -2 10 4 -11 17 15 21 43 6 30 -15 88 -9 167 18 35 12 96 22 156
26 89 5 103 3 143 -17 56 -29 108 -81 145 -145 23 -39 29 -61 28 -101 -1 -28
1 -56 5 -63 4 -6 3 -11 -3 -11 -6 0 -2 -25 9 -57 21 -62 70 -226 100 -333 15
-54 19 -61 24 -40 3 14 4 39 2 55 -3 28 13 73 37 103 10 13 11 247 1 263 -2 4
-6 37 -9 73 -3 37 -12 86 -21 109 -21 57 -22 71 -4 72 14 1 14 6 3 48 -3 9 -1
17 5 17 7 0 8 10 3 28 -4 15 -6 32 -4 38 2 6 -19 31 -47 57 -27 25 -55 57 -61
70 -12 26 -47 47 -78 47 -11 0 -25 14 -35 35 -21 44 -30 49 -89 46 -27 -1 -54
2 -60 7 -24 18 -72 29 -94 21 -15 -6 -27 -4 -37 7 -16 15 -32 2 -20 -17 4 -8
0 -8 -15 0 -11 7 -21 15 -21 19 0 8 -189 12 -230 5z m644 -149 c29 -11 18 -31
-14 -26 -31 4 -39 17 -17 25 6 3 13 6 14 6 1 1 8 -2 17 -5z"/>
<path d="M1750 2091 c0 -4 -19 -8 -42 -9 -61 -3 -140 -30 -173 -58 -15 -13
-36 -26 -46 -29 -11 -4 -16 -12 -12 -22 3 -8 7 -29 8 -47 2 -17 3 -34 4 -38 1
-8 60 -38 73 -38 5 0 16 -7 25 -15 11 -12 32 -15 82 -13 36 2 66 8 66 13 0 6
-16 18 -35 28 -19 10 -26 17 -15 15 25 -4 55 20 55 44 0 10 5 18 11 18 7 0 9
-10 4 -27 -6 -24 -5 -25 11 -12 9 8 24 13 33 12 9 -2 23 1 31 7 13 8 13 11 0
24 -21 20 -88 56 -105 56 -33 0 -3 47 35 55 35 8 42 40 10 42 -11 1 -20 -2
-20 -6z m45 -141 c3 -5 2 -10 -4 -10 -5 0 -13 5 -16 10 -3 6 -2 10 4 10 5 0
13 -4 16 -10z"/>
<path d="M1090 2002 c-14 -2 -28 -9 -32 -16 -5 -7 -8 -7 -8 0 0 20 -43 8 -67
-20 -30 -35 -29 -50 2 -44 18 4 25 1 25 -11 0 -9 3 -12 8 -6 4 6 16 17 26 25
18 14 19 14 7 -7 -11 -21 -8 -27 12 -24 5 1 6 -3 2 -9 -4 -6 -15 -8 -26 -5
-11 4 -19 2 -19 -4 0 -6 6 -11 13 -11 7 0 6 -4 -4 -10 -19 -11 -55 -87 -46
-97 4 -3 16 2 26 11 21 19 64 17 98 -3 17 -11 17 -11 -2 -10 -66 5 -70 -15 -5
-25 39 -6 94 6 158 36 24 11 50 17 58 14 8 -3 13 -2 9 3 -3 5 2 17 12 26 27
27 29 124 4 153 -11 13 -25 21 -31 17 -6 -4 -17 -2 -23 4 -7 5 -22 11 -32 11
-96 5 -144 6 -165 2z m70 -216 c0 -3 -4 -8 -10 -11 -5 -3 -10 -1 -10 4 0 6 5
11 10 11 6 0 10 -2 10 -4z"/>
<path d="M2080 1770 c0 -19 35 -65 49 -65 24 0 23 20 -3 48 -25 27 -46 35 -46
17z"/>
<path d="M2151 1684 c0 -11 3 -14 6 -6 3 7 2 16 -1 19 -3 4 -6 -2 -5 -13z"/>
<path d="M2043 1643 c-1 -19 1 -22 8 -12 11 17 12 39 2 39 -5 0 -9 -12 -10
-27z"/>
<path d="M1261 1608 c-12 -19 -11 -23 5 -35 11 -8 18 -19 17 -24 -2 -5 2 -9 7
-9 16 0 12 -26 -6 -41 -24 -20 -54 -19 -54 2 0 9 6 20 13 22 7 3 4 6 -6 6 -22
1 -87 -60 -104 -98 -6 -14 -12 -21 -12 -14 -1 7 -8 10 -18 6 -10 -4 -14 -2 -9
5 3 6 2 13 -3 17 -10 6 -7 -27 4 -44 11 -19 -18 -24 -32 -5 -13 18 -14 18 -19
-4 -4 -12 -11 -19 -17 -15 -7 4 -8 0 -4 -11 4 -10 7 -20 7 -22 0 -11 29 -2 34
11 3 8 12 15 21 15 8 0 15 5 15 10 0 6 3 10 8 10 8 0 32 -48 32 -64 0 -6 7
-24 15 -40 21 -40 8 -48 -18 -12 -12 16 -31 41 -44 54 -19 21 -24 22 -29 8 -3
-9 -12 -16 -20 -16 -8 0 -14 -1 -15 -2 -11 -57 -9 -89 6 -94 13 -5 14 -9 3
-15 -11 -7 -10 -11 2 -19 11 -7 12 -10 2 -10 -14 0 -51 38 -52 53 0 5 -9 21
-19 35 -20 28 -21 32 -21 57 0 8 -4 15 -9 15 -13 0 -2 -62 14 -80 7 -8 16 -32
20 -52 4 -21 11 -38 16 -38 5 0 18 -19 30 -42 26 -52 64 -99 73 -91 3 4 6 0 6
-8 0 -8 9 -20 20 -27 12 -7 18 -18 14 -24 -4 -7 -3 -8 5 -4 7 4 18 -4 28 -22
10 -17 32 -36 50 -43 18 -7 33 -17 33 -21 0 -5 4 -7 9 -3 17 10 22 -13 6 -28
-12 -13 -12 -16 -1 -20 8 -3 17 1 20 9 3 9 10 12 16 9 6 -4 1 -14 -12 -24 -21
-18 -21 -19 -2 -25 10 -3 30 -4 43 -1 17 3 24 -1 28 -15 3 -11 11 -16 20 -13
9 4 16 -2 20 -16 4 -18 12 -21 37 -19 18 2 30 8 29 16 -5 21 14 13 20 -9 4
-15 11 -20 22 -15 9 3 14 2 12 -2 -3 -4 1 -13 9 -20 8 -7 14 -11 15 -10 7 26
6 44 -2 48 -5 4 0 15 12 26 17 14 21 15 17 4 -7 -20 27 -24 65 -7 25 11 32 35
8 30 -6 -2 -11 1 -11 6 0 12 34 20 67 16 25 -3 26 -2 8 11 -16 12 -16 14 -3
14 9 0 25 10 35 23 10 13 31 27 46 31 22 5 27 11 22 26 -5 16 -2 20 14 20 12
0 21 6 21 14 0 7 10 24 23 38 45 51 69 84 82 114 8 17 21 37 30 44 34 28 58
107 69 226 6 61 5 72 -9 78 -24 9 -25 8 -25 -13 0 -24 -38 -111 -49 -111 -4 0
-14 11 -21 24 l-13 25 -38 -20 c-21 -10 -46 -30 -55 -44 -21 -33 -33 -32 -29
3 17 125 17 158 1 171 -9 7 -16 19 -16 25 0 6 -20 21 -45 33 -44 21 -45 22
-34 1 25 -47 -83 -73 -133 -32 -18 14 -23 24 -15 27 9 3 9 9 1 23 -15 26 -45
28 -71 5 -11 -11 -23 -18 -25 -16 -2 2 -21 6 -43 8 -22 3 -48 8 -58 12 -12 5
-26 0 -41 -14 -20 -19 -25 -20 -35 -7 -7 8 -11 19 -8 23 2 4 2 16 -2 25 -6 16
-8 16 -20 -4z m439 -159 c0 -6 -6 -9 -12 -6 -7 2 -21 0 -31 -5 -12 -6 -23 -6
-31 1 -7 6 -16 8 -19 4 -4 -3 -7 -1 -7 5 0 8 19 12 50 12 29 0 50 -4 50 -11z
m-51 -41 c11 -10 12 -10 7 -1 -5 9 -2 11 8 7 8 -3 17 -16 20 -30 6 -22 36 -35
36 -15 0 5 9 11 20 14 20 5 20 5 33 -110 2 -18 0 -33 -5 -33 -4 0 -8 -5 -8
-11 0 -6 -9 -22 -20 -36 -11 -14 -20 -34 -20 -44 0 -11 -7 -19 -15 -19 -8 0
-15 -9 -15 -19 0 -11 -4 -23 -10 -26 -5 -3 -10 -1 -10 6 0 6 -8 2 -17 -10 -16
-18 -21 -19 -43 -8 -24 12 -31 35 -32 110 -1 29 -9 33 -39 17 -14 -8 -19 -7
-19 1 0 7 -4 8 -12 2 -7 -5 -25 -10 -40 -11 -20 -1 -28 3 -29 16 0 10 -4 7
-11 -11 -5 -15 -14 -25 -19 -21 -5 3 -9 1 -9 -5 0 -6 9 -15 20 -21 23 -12 27
-57 8 -82 -14 -17 -58 -31 -58 -19 0 4 -16 16 -35 26 -19 11 -32 21 -30 23 2
2 -12 19 -32 37 -22 20 -31 35 -24 39 14 9 14 36 0 36 -6 0 -9 -7 -5 -15 3 -8
0 -15 -6 -15 -6 0 -8 11 -5 29 3 15 1 33 -6 40 -8 8 -8 14 0 22 6 6 9 18 6 26
-5 13 -3 13 18 1 13 -7 31 -19 40 -26 12 -9 64 -11 64 -2 0 1 34 3 75 4 41 1
84 7 94 13 15 8 -5 10 -85 9 -106 -1 -139 8 -139 41 0 15 47 36 61 28 5 -3 17
-1 28 4 14 8 21 8 25 -2 3 -9 8 -7 16 5 9 15 44 17 58 4 2 -3 11 2 20 10 9 9
24 13 38 10 12 -3 25 -2 29 4 3 5 12 7 19 4 8 -3 17 -1 21 5 8 14 18 14 34 -1z
m-45 -623 c-4 -8 -10 -12 -15 -9 -14 8 -10 24 6 24 9 0 12 -6 9 -15z"/>
<path d="M1373 1215 c18 -18 32 -24 38 -18 12 12 -5 27 -41 38 l-25 7 28 -27z"/>
<path d="M2047 1590 c3 -11 0 -20 -6 -20 -5 0 -8 -7 -4 -16 5 -13 7 -13 14 -2
12 17 11 58 0 58 -5 0 -7 -9 -4 -20z"/>
<path d="M870 1509 c0 -11 4 -18 10 -14 5 3 7 12 3 20 -7 21 -13 19 -13 -6z"/>
<path d="M2070 1520 c0 -5 5 -10 11 -10 5 0 7 5 4 10 -3 6 -8 10 -11 10 -2 0
-4 -4 -4 -10z"/>
<path d="M894 1478 c4 -12 1 -15 -10 -11 -19 7 -20 -74 -1 -110 13 -24 13 -24
36 -6 18 15 21 22 12 33 -7 8 -11 18 -10 22 2 9 -6 35 -22 69 -5 11 -7 12 -5
3z"/>
<path d="M2030 1479 c0 -5 5 -7 10 -4 6 3 10 8 10 11 0 2 -4 4 -10 4 -5 0 -10
-5 -10 -11z"/>
<path d="M2080 970 c-7 -136 -42 -288 -70 -305 -6 -4 -8 -10 -5 -15 3 -4 -2
-13 -9 -20 -8 -6 -18 -26 -22 -43 -3 -17 -13 -42 -21 -54 -9 -13 -12 -23 -8
-23 4 0 2 -7 -5 -15 -7 -9 -10 -19 -6 -23 10 -9 40 33 67 93 12 28 33 74 46
104 48 108 64 222 43 306 l-8 30 -2 -35z"/>
<path d="M2120 999 c0 -4 6 -24 14 -46 23 -66 45 -192 51 -303 4 -58 11 -148
16 -200 5 -52 14 -165 20 -250 6 -85 13 -165 15 -178 l4 -22 480 0 480 0 -2
352 -3 352 -80 18 c-356 81 -554 113 -743 123 -97 5 -165 29 -177 64 -6 18
-75 100 -75 90z"/>
<path d="M3137 878 c-43 -12 -48 -41 -8 -46 43 -7 71 6 71 33 0 27 -5 28 -63
13z"/>
<path d="M1037 783 c-56 -121 -109 -176 -192 -203 -22 -7 -91 -37 -153 -66
-63 -30 -115 -54 -117 -54 -2 0 -50 -26 -107 -58 -57 -32 -142 -79 -190 -105
-48 -26 -119 -69 -156 -96 -38 -28 -81 -55 -95 -60 -25 -10 -27 -14 -27 -76
l0 -65 588 0 588 0 -27 173 c-15 95 -37 211 -49 258 -35 134 -42 187 -38 297
3 56 3 102 1 102 -2 0 -14 -21 -26 -47z"/>
<path d="M1240 820 c0 -5 5 -10 10 -10 6 0 10 5 10 10 0 6 -4 10 -10 10 -5 0
-10 -4 -10 -10z"/>
<path d="M1335 780 c-3 -5 -1 -10 4 -10 6 0 11 5 11 10 0 6 -2 10 -4 10 -3 0
-8 -4 -11 -10z"/>
<path d="M1130 750 c0 -5 17 -30 37 -57 20 -26 52 -68 71 -93 19 -25 45 -56
57 -70 13 -14 41 -45 64 -70 40 -44 40 -44 29 -12 -7 17 -16 32 -20 32 -4 0
-8 9 -8 20 0 11 5 20 11 20 5 0 8 4 4 10 -3 5 -13 6 -22 3 -12 -5 -14 -3 -8 6
5 10 2 11 -14 6 -13 -4 -26 -1 -34 7 -19 21 -37 56 -37 72 0 7 -9 16 -20 19
-11 3 -19 9 -18 14 1 4 -19 29 -45 55 -26 25 -47 43 -47 38z"/>
<path d="M1335 700 c3 -5 8 -10 11 -10 2 0 4 5 4 10 0 6 -5 10 -11 10 -5 0 -7
-4 -4 -10z"/>
<path d="M1970 445 c-7 -8 -10 -24 -7 -34 3 -14 1 -18 -9 -14 -12 4 -11 0 1
-23 7 -15 12 -31 9 -36 -3 -4 -1 -8 4 -8 5 0 9 -6 10 -12 1 -7 4 -25 8 -40 4
-17 -2 -54 -15 -97 -12 -38 -21 -75 -20 -83 1 -14 49 81 49 98 0 15 42 50 58
50 15 -1 34 -31 56 -89 8 -20 22 -37 30 -37 10 0 13 6 10 15 -5 11 -2 13 10 9
22 -8 20 5 -8 95 -14 42 -32 102 -41 133 -9 35 -24 63 -37 73 -29 19 -92 20
-108 0z"/>
<path d="M1392 286 c-13 -19 -29 -54 -37 -79 -7 -24 -23 -64 -34 -88 -25 -51
-26 -55 -6 -39 8 7 15 9 15 6 0 -4 7 0 16 9 13 13 19 13 32 3 13 -11 15 -10 9
6 -6 14 -4 17 8 12 9 -3 15 0 15 10 0 8 -4 13 -9 10 -5 -3 -8 6 -8 19 0 30 2
30 51 4 41 -22 62 -18 30 6 -18 14 -18 16 -1 29 22 17 22 29 -3 51 -18 16 -18
19 -3 41 14 22 14 24 -1 18 -9 -3 -16 -1 -16 5 0 24 -36 9 -58 -23z"/>
<path d="M1540 215 c0 -8 4 -15 9 -15 5 0 11 7 15 15 3 9 0 15 -9 15 -8 0 -15
-7 -15 -15z"/>
</g>
</svg>
